<?xml version="1.0" encoding="UTF-8"?>
<svg width="1024" height="1024" viewBox="0 0 1024 1024" xmlns="http://www.w3.org/2000/svg">
  <!-- Removed the background rectangle path with id="1" -->
  <path id="4" d="M 303.634,785.421 C 286.686,781.297 273.003,767.624 268.492,750.307 C 267.190,745.307 267,713.855 267,502.500 C 267,286.940 267.170,259.767 268.552,254.460 C 273.029,237.267 288.446,223.668 306.500,220.987 C 317.618,219.336 584.504,220.104 586.192,221.792 C 587.247,222.847 587.243,223.232 586.168,223.896 C 585.101,224.556 584.922,234.218 585.223,275.105 C 585.576,323.089 585.695,325.799 587.692,331.748 C 591.604,343.400 600.615,354.229 610.269,358.877 C 620.505,363.805 623.044,364 677.205,364 C 677.205,364 727.990,364 727.990,364 C 727.990,364 728.245,556.750 728.245,556.750 C 728.245,556.750 728.500,749.500 728.500,749.500 C 728.500,749.500 726.364,756.211 726.364,756.211 C 722.306,768.960 711.486,779.710 698.154,784.239 C 698.154,784.239 691.500,786.500 691.500,786.500 C 691.500,786.500 500.500,786.674 500.500,786.674 C 338.011,786.822 308.624,786.635 303.634,785.421M 474.915,674.544 C 480.150,671.837 481.464,667.234 481.819,650.359 C 481.819,650.359 482.138,635.218 482.138,635.218 C 482.138,635.218 530.819,635.503 530.819,635.503 C 557.594,635.660 584.848,635.410 591.383,634.948 C 602.742,634.145 603.676,633.905 612.573,629.490 C 627.969,621.849 638.061,609.293 642.419,592.356 C 644.728,583.383 644.755,520.743 642.452,515.232 C 636.974,502.121 622.882,500.142 614.592,511.321 C 612.585,514.027 612.480,515.596 612,549.821 C 612,549.821 611.500,585.500 611.500,585.500 C 611.500,585.500 608.987,590 608.987,590 C 606.230,594.936 599.123,600.316 593.177,601.967 C 590.884,602.604 569.170,602.991 535.500,602.994 C 535.500,602.994 481.500,602.998 481.500,602.998 C 481.500,602.998 481.500,586.148 481.500,586.148 C 481.500,565.029 480.694,563.073 471.097,560.909 C 468.656,560.358 466.767,560.586 464.637,561.688 C 462.981,562.544 449.798,574.469 435.342,588.187 C 407.519,614.590 406.466,615.934 407.689,623.472 C 407.992,625.337 409.423,628.191 410.870,629.816 C 414.090,633.431 459.715,673.166 462.501,674.781 C 465.291,676.398 471.562,676.278 474.915,674.544M 386.633,572.370 C 388.731,571.374 391.125,568.942 392.784,566.120 C 392.784,566.120 395.500,561.500 395.500,561.500 C 395.500,561.500 396,526 396,526 C 396.560,486.257 396.328,487.561 404.169,479.952 C 411.329,473.003 411.362,473 473.181,473 C 473.181,473 528,473 528,473 C 528,473 528.022,487.750 528.022,487.750 C 528.040,500.073 528.356,503.189 529.943,506.684 C 532.140,511.523 536.130,514.003 541.700,513.993 C 546.632,513.984 548.155,512.890 564.099,497.901 C 571.469,490.972 582.445,480.716 588.488,475.109 C 594.531,469.502 600.027,463.921 600.702,462.707 C 601.377,461.493 601.946,458.285 601.965,455.578 C 601.999,450.803 601.797,450.457 595.250,444.056 C 591.537,440.427 579.559,429.257 568.630,419.233 C 546.784,399.197 544.096,397.550 537.391,400.102 C 530.271,402.812 529.541,404.944 529.184,424.070 C 529.184,424.070 528.868,441 528.868,441 C 528.868,441 472.248,441 472.248,441 C 410.399,441 409.476,441.073 396.500,446.987 C 383.521,452.902 371.739,464.787 366.748,477 C 364.563,482.345 364.493,483.625 364.248,522.500 C 363.997,562.391 364.002,562.511 366.248,566.396 C 370.274,573.363 379.094,575.947 386.633,572.370" stroke="#329697" fill="#329697" stroke-width="1"/>
  <path id="50" d="M 462.501,674.781 C 459.715,673.166 414.090,633.431 410.870,629.816 C 409.423,628.191 407.992,625.337 407.689,623.472 C 406.466,615.934 407.519,614.590 435.342,588.187 C 449.798,574.469 462.981,562.544 464.637,561.688 C 466.767,560.586 468.656,560.358 471.097,560.909 C 480.694,563.073 481.500,565.029 481.500,586.148 C 481.500,586.148 481.500,602.998 481.500,602.998 C 481.500,602.998 535.500,602.994 535.500,602.994 C 569.170,602.991 590.884,602.604 593.177,601.967 C 599.123,600.316 606.230,594.936 608.987,590 C 608.987,590 611.500,585.500 611.500,585.500 C 611.500,585.500 612,549.821 612,549.821 C 612.480,515.596 612.585,514.027 614.592,511.321 C 622.882,500.142 636.974,502.121 642.452,515.232 C 644.755,520.743 644.728,583.383 642.419,592.356 C 638.061,609.293 627.969,621.849 612.573,629.490 C 603.676,633.905 602.742,634.145 591.383,634.948 C 584.848,635.410 557.594,635.660 530.819,635.503 C 530.819,635.503 482.138,635.218 482.138,635.218 C 482.138,635.218 481.819,650.359 481.819,650.359 C 481.464,667.234 480.150,671.837 474.915,674.544 C 471.562,676.278 465.291,676.398 462.501,674.781" stroke="#264144" fill="#264144" stroke-width="1"/>
  <path id="42" d="M 728.247,556.250 C 728.247,556.250 728,364 728,364 C 728,364 677.210,364 677.210,364 C 623.043,364 620.505,363.805 610.269,358.877 C 600.615,354.229 591.604,343.400 587.692,331.748 C 585.695,325.800 585.577,323.088 585.224,275.252 C 584.902,231.556 585.049,224.808 586.355,223.502 C 588.450,221.407 590.654,221.628 597,224.567 C 601.670,226.730 611.226,235.823 660.299,284.807 C 692.088,316.538 719.881,344.799 722.061,347.609 C 729.607,357.334 729.040,339.766 728.753,555 C 728.753,555 728.495,748.500 728.495,748.500 C 728.495,748.500 728.247,556.250 728.247,556.250" stroke="#217377" fill="#217377" stroke-width="1"/>
  <path id="50" d="M 371.984,572.146 C 370.068,571.126 367.486,568.539 366.248,566.396 C 364.002,562.511 363.997,562.391 364.248,522.500 C 364.493,483.625 364.563,482.345 366.748,477 C 371.739,464.787 383.521,452.902 396.500,446.987 C 409.476,441.073 410.399,441 472.248,441 C 472.248,441 528.868,441 528.868,441 C 528.868,441 529.184,424.070 529.184,424.070 C 529.541,404.944 530.271,402.812 537.391,400.102 C 544.096,397.550 546.784,399.197 568.630,419.233 C 579.559,429.257 591.537,440.427 595.250,444.056 C 601.797,450.457 601.999,450.803 601.965,455.578 C 601.946,458.285 601.377,461.493 600.702,462.707 C 600.027,463.921 594.531,469.502 588.488,475.109 C 582.445,480.716 571.469,490.972 564.099,497.901 C 548.155,512.890 546.632,513.984 541.700,513.993 C 536.130,514.003 532.140,511.523 529.943,506.684 C 528.356,503.189 528.040,500.073 528.022,487.750 C 528.022,487.750 528,473 528,473 C 528,473 473.181,473 473.181,473 C 411.362,473 411.329,473.003 404.169,479.952 C 396.328,487.561 396.560,486.257 396,526 C 396,526 395.500,561.500 395.500,561.500 C 395.500,561.500 392.784,566.120 392.784,566.120 C 388.364,573.638 379.574,576.185 371.984,572.146" stroke="#264144" fill="#264144" stroke-width="1"/>
  <path id="4" d="M 729.490,554.500 C 729.490,449.450 729.607,406.327 729.750,458.671 C 729.893,511.015 729.893,596.964 729.750,649.670 C 729.607,702.376 729.490,659.550 729.490,554.500" stroke="#329697" fill="#329697" stroke-width="1"/>
</svg> 